#N canvas -8 -8 1366 695 12;
#N canvas 362 48 958 556 Synth 0;
#X obj 100 100 cnv 15 330 200 empty empty supersynth_v2.0 10 10 0 14
-204148 -66577 0;
#N canvas 0 50 450 250 (subpatch) 0;
#X array graph 1000 float 0;
#X coords 0 -10 999 10 165 50 2 0 0;
#X restore 130 240 graph;
#X obj 538 190 osc~ 440;
#X obj 110 122 vsl 15 165 0 0.1 0 0 empty empty empty -1 176 0 10 -4032
-258113 -16662 3880 1;
#X obj 405 105 tgl 15 0 empty empty power -30 7 0 9 -258113 -262144
-1 1 1;
#X obj 789 56 osc~ 440;
#X obj 790 82 *~ 0.5;
#X obj 790 108 +~ 0.5;
#X obj 796 174 osc~ 440;
#X msg 534 106 440;
#X msg 796 149 0;
#X msg 789 30 0;
#X obj 165 226 tgl 9 0 empty empty empty -11 -7 0 10 -86277 -261234
-1 1 1;
#X obj 445 494 dac~;
#X obj 192 172 bng 15 250 50 0 empty empty empty 17 7 0 10 -262130
-257985 -1;
#X obj 192 137 bng 15 250 50 0 empty empty empty 17 7 0 10 -261682
-260097 -1;
#X obj 192 207 bng 15 250 50 0 empty empty empty 17 7 0 10 -204786
-4034 -1;
#X obj 202 406 tabwrite~ graph;
#X obj 531 7 loadbang;
#X msg 107 74 set \$1;
#X obj 93 406 tabwrite~ graph;
#X obj 149 385 metro 0;
#X obj 202 385 metro 100;
#X obj 130 132 nbx 5 20 0 2000 0 0 empty empty frequency 0 -8 0 10
-261682 -260097 -260097 440 256;
#X obj 130 167 nbx 5 20 0 2000 0 0 empty empty am 0 -8 0 10 -262130
-83269 -1 0 256;
#X obj 130 202 nbx 5 20 0 2000 0 0 empty empty rm 0 -8 0 10 -204786
-13381 -1 0 256;
#X obj 214 139 cnv 15 83 85 empty empty fm 5 7 0 14 -204800 -66577
0;
#X obj 218 167 nbx 5 20 0 2000 0 0 empty empty frequency 0 -8 0 10
-204800 -13330 -13330 0 256;
#X obj 217 202 nbx 5 20 0 2000 0 0 empty empty bit-depth 0 -8 0 10
-204800 -13330 -13330 0 256;
#X obj 616 59 osc~ 440;
#X obj 536 132 sig~;
#X msg 616 30 0;
#X obj 280 172 bng 15 250 50 0 empty empty empty 17 7 0 10 -204800
-13330 -1;
#X obj 279 207 bng 15 250 50 0 empty empty empty 17 7 0 10 -204800
-13330 -261682;
#X msg 709 31 0;
#X obj 616 85 *~ 1;
#X text 867 24 am;
#X text 866 151 rm;
#X text 664 3 fm;
#X obj 307 131 cnv 15 115 150 empty empty env 10 10 0 14 -232576 -45076
0;
#N canvas 369 51 802 566 adsr 0;
#X obj 105 111 inlet;
#X obj 435 151 inlet;
#X text 101 86 trigger;
#X obj 105 139 sel 0;
#X obj 244 155 t b;
#X obj 166 264 f \$1;
#X obj 166 289 pack 0 \$2;
#X obj 492 151 inlet;
#X obj 438 281 del \$2;
#X obj 458 429 line~;
#X obj 462 304 f \$4;
#X obj 501 379 pack 0 \$3;
#X obj 554 151 inlet;
#X obj 616 151 inlet;
#X obj 689 150 inlet;
#X msg 105 170 stop;
#X obj 612 306 pack 0 \$5;
#X text 435 129 level;
#X obj 501 355 * \$1;
#X obj 458 454 outlet~;
#X text 102 378 and pack with;
#X text 103 398 attack time;
#X text 31 126 if zero;
#X text 32 143 release;
#X text 12 160 and cancel;
#X text 43 177 decay;
#X text 284 272 on attack \, set a;
#X text 278 305 recall sustain value;
#X text 315 378 pack with decay time;
#X text 605 332 on release ramp;
#X text 606 349 back to zero;
#X obj 462 329 * 0.01;
#X text 47 567 Objects such as "f" and "pack" can be given dollar sign
arguments to initialize their contents from adsr's creation arguments.
Inlets are supplied to change them on the fly.;
#X text 13 2 ADSR ENVELOPE;
#X text 488 129 attack;
#X text 555 128 decay;
#X text 609 129 sustain;
#X text 686 129 release;
#X text 202 71 attack;
#X obj 204 92 moses;
#X obj 194 122 t b b;
#X msg 128 290 0;
#X text 20 273 optionally;
#X text 10 291 bash to zero;
#X text 25 246 ATTACK:;
#X text 49 477 When you send this patch a positive trigger it schedules
a line~ to do an attack and decay \, and if zero \, it starts the release
ramp.;
#X text 495 629 Updated for Pd version 0.37;
#X text 255 89 test for negative trigger;
#X text 253 113 if so \, zero;
#X text 254 129 the output;
#X text 278 165 in any case;
#X text 303 355 multiply by peak level;
#X text 280 286 delay for sustain;
#X text 276 328 convert from percent;
#X text 155 340 ... then;
#X text 103 359 recall peak level;
#X text 439 113 peak;
#X text 281 149 ... do this;
#X text 47 529 Negative triggers cause the output to jump to zero and
then attack (instead of attacking from the current location).;
#X text 208 1 Arguments: level \, attack time \, decay time \, sustain
level \, release time. A \, D \, and R are in msec and S is in percent.
This patch is used as an abstraction in various examples.;
#X connect 0 0 3 0;
#X connect 1 0 5 1;
#X connect 1 0 18 1;
#X connect 3 0 15 0;
#X connect 3 0 16 0;
#X connect 3 1 39 0;
#X connect 4 0 5 0;
#X connect 4 0 8 0;
#X connect 5 0 6 0;
#X connect 6 0 9 0;
#X connect 7 0 6 1;
#X connect 7 0 8 1;
#X connect 8 0 10 0;
#X connect 9 0 19 0;
#X connect 10 0 31 0;
#X connect 11 0 9 0;
#X connect 12 0 11 1;
#X connect 13 0 10 1;
#X connect 14 0 16 1;
#X connect 15 0 8 0;
#X connect 16 0 9 0;
#X connect 18 0 11 0;
#X connect 31 0 18 0;
#X connect 39 0 40 0;
#X connect 39 1 4 0;
#X connect 40 0 4 0;
#X connect 40 1 41 0;
#X connect 41 0 9 0;
#X coords 0 566 1 565 85 60 0;
#X restore 551 362 pd adsr;
#X f 12;
#X obj 320 186 hsl 75 10 0 5000 0 0 empty empty attack -2 -8 0 10 -159808
-4034 -45076 1 1;
#X obj 320 211 hsl 75 10 0 5000 0 0 empty empty decay -2 -8 0 10 -159808
-4034 -45076 740 1;
#X obj 320 261 hsl 75 10 0 5000 0 0 empty empty release -2 -8 0 10
-159808 -4034 -45076 740 1;
#X obj 320 236 hsl 75 10 0 1 0 0 empty empty sustain -2 -8 0 10 -159808
-4034 -45076 7400 1;
#X msg 887 293 1;
#X floatatom 839 293 5 0 0 0 - - -;
#X floatatom 839 323 5 0 0 0 - - -;
#X floatatom 836 389 5 0 0 0 - - -;
#X floatatom 839 360 5 0 0 0 - - -;
#X msg 887 323 500;
#X msg 884 389 500;
#X msg 887 360 1;
#X floatatom 566 415 5 0 0 0 - - -;
#X msg 606 405 0;
#X obj 445 451 *~;
#X obj 320 161 hsl 75 10 20 500 0 0 empty empty peak_level -2 -8 0
10 -159808 -4034 -45076 5858 1;
#X text 525 83 main;
#X obj 540 235 *~;
#X obj 488 387 *~;
#X msg 107 49 0.02;
#X obj 537 157 +~;
#X obj 860 236 loadbang;
#X msg 606 431 400;
#X obj 403 161 bng 10 250 50 0 empty empty empty 17 7 0 10 -159808
-4034 -1;
#X obj 403 186 bng 10 250 50 0 empty empty empty 17 7 0 10 -159808
-4034 -1;
#X obj 403 211 bng 10 250 50 0 empty empty empty 17 7 0 10 -159808
-4034 -1;
#X obj 403 236 bng 10 250 50 0 empty empty empty 17 7 0 10 -159808
-4034 -1;
#X obj 403 261 bng 10 250 50 0 empty empty empty 17 7 0 10 -159808
-4034 -1;
#X text 356 279 plaidDroid;
#X connect 2 0 58 0;
#X connect 3 0 55 0;
#X connect 4 0 40 0;
#X connect 5 0 6 0;
#X connect 6 0 7 0;
#X connect 7 0 58 1;
#X connect 8 0 58 1;
#X connect 9 0 23 0;
#X connect 9 0 30 0;
#X connect 10 0 8 0;
#X connect 10 0 25 0;
#X connect 11 0 5 0;
#X connect 11 0 24 0;
#X connect 12 0 21 0;
#X connect 12 0 22 0;
#X connect 14 0 11 0;
#X connect 15 0 9 0;
#X connect 16 0 10 0;
#X connect 18 0 60 0;
#X connect 18 0 9 0;
#X connect 18 0 11 0;
#X connect 18 0 10 0;
#X connect 18 0 31 0;
#X connect 18 0 34 0;
#X connect 19 0 3 0;
#X connect 21 0 20 0;
#X connect 22 0 17 0;
#X connect 23 0 30 0;
#X connect 24 0 5 0;
#X connect 25 0 8 0;
#X connect 27 0 29 0;
#X connect 28 0 35 1;
#X connect 29 0 35 0;
#X connect 30 0 61 0;
#X connect 31 0 27 0;
#X connect 32 0 31 0;
#X connect 33 0 34 0;
#X connect 34 0 28 0;
#X connect 35 0 61 1;
#X connect 40 0 59 1;
#X connect 41 0 46 0;
#X connect 42 0 47 0;
#X connect 43 0 48 0;
#X connect 44 0 49 0;
#X connect 45 0 41 0;
#X connect 46 0 40 2;
#X connect 47 0 40 3;
#X connect 48 0 40 5;
#X connect 49 0 40 4;
#X connect 50 0 42 0;
#X connect 51 0 43 0;
#X connect 52 0 44 0;
#X connect 53 0 40 1;
#X connect 54 0 53 0;
#X connect 55 0 13 0;
#X connect 55 0 13 1;
#X connect 56 0 53 0;
#X connect 56 0 40 1;
#X connect 58 0 59 0;
#X connect 59 0 17 0;
#X connect 59 0 55 1;
#X connect 60 0 19 0;
#X connect 61 0 2 0;
#X connect 62 0 63 0;
#X connect 62 0 45 0;
#X connect 62 0 50 0;
#X connect 62 0 52 0;
#X connect 62 0 51 0;
#X connect 63 0 53 0;
#X connect 63 0 56 0;
#X connect 64 0 63 0;
#X connect 65 0 45 0;
#X connect 66 0 50 0;
#X connect 67 0 52 0;
#X connect 68 0 51 0;
#X coords 0 -1 1 1 330 200 2 100 100;
#X restore 69 47 pd Synth;
